# xmcd
#
# Track frame offsets: 
#        150
#        17285
#        35724
#        52500
#        75602
#        92394
#        108146
#        125052
#        146085
#        163153
#        179648
#        203352
#
# Disc length: 2903 seconds
#
# Revision: 0
# Processed by: cddbd v1.5.2PL0 Copyright (c) Steve Scherf et al.
# Submitted via: ExactAudioCopy v0.99pb5
#
DISCID=8f0b550c
DTITLE=Marianne Keith - Beautiful Distraction
DYEAR=2006
DGENRE=Pop
TTITLE0=Beautiful Distraction
TTITLE1=The Angry Song
TTITLE2=Happy Girl
TTITLE3=Too Late
TTITLE4=Maybe Next Time
TTITLE5=Something Real
TTITLE6=Kiss Me in the Rain
TTITLE7=That's Just How Love Goes
TTITLE8=Make You Mine
TTITLE9=On the Line
TTITLE10=Sideways Rain
TTITLE11=I'm Not the Girl for You
EXTD=
EXTT0=
EXTT1=
EXTT2=
EXTT3=
EXTT4=
EXTT5=
EXTT6=
EXTT7=
EXTT8=
EXTT9=
EXTT10=
EXTT11=
PLAYORDER=
